<?xml version="1.0" standalone="no"?>
<!DOCTYPE svg PUBLIC "-//W3C//DTD SVG 20010904//EN"
 "http://www.w3.org/TR/2001/REC-SVG-20010904/DTD/svg10.dtd">
<svg version="1.0" xmlns="http://www.w3.org/2000/svg"
 width="700.000000pt" height="700.000000pt" viewBox="0 0 700.000000 700.000000"
 preserveAspectRatio="xMidYMid meet">
<metadata>
Created by potrace 1.14, written by Peter Selinger 2001-2017
</metadata>
<g transform="translate(0.000000,700.000000) scale(0.100000,-0.100000)"
fill="#000000" stroke="none">
<path d="M1197 6993 c-2 -5 -3 -1484 -3 -3288 l1 -3280 840 0 840 0 0 3285 0
3285 -837 3 c-460 1 -839 -1 -841 -5z"/>
<path d="M5064 4783 c-62 -96 -98 -153 -162 -253 -23 -36 -208 -326 -411 -645
-203 -319 -422 -663 -487 -765 -129 -202 -181 -284 -259 -405 -28 -44 -100
-156 -159 -250 -123 -194 -279 -439 -530 -831 -53 -83 -96 -155 -96 -160 0 -5
62 -49 138 -97 75 -48 405 -263 732 -477 327 -214 645 -421 705 -460 61 -39
168 -109 239 -155 l129 -85 110 173 c60 94 126 198 146 230 20 31 64 100 99
153 34 53 62 99 62 103 0 6 -162 115 -458 306 -122 80 -359 235 -634 414
l-144 95 218 340 c120 188 231 364 248 391 26 43 338 532 528 830 115 179 477
746 492 770 34 55 174 275 215 338 l45 67 -180 118 c-99 64 -251 164 -338 220
-86 57 -165 108 -174 113 -15 8 -27 -5 -74 -78z"/>
</g>
</svg>
